<mxfile host="Electron" agent="Mozilla/5.0 (Windows NT 10.0; Win64; x64) AppleWebKit/537.36 (KHTML, like Gecko) draw.io/26.0.16 Chrome/132.0.6834.196 Electron/34.2.0 Safari/537.36" version="26.0.16">
  <diagram name="第 1 页" id="JuhjfQN6xCBDkW_7Vy1s">
    <mxGraphModel dx="743" dy="539" grid="1" gridSize="10" guides="1" tooltips="1" connect="1" arrows="1" fold="1" page="1" pageScale="1" pageWidth="827" pageHeight="1169" math="0" shadow="0">
      <root>
        <mxCell id="0" />
        <mxCell id="1" parent="0" />
        <mxCell id="mHtDWtfK3_R8wOqp-HFp-17" value="" style="rounded=1;whiteSpace=wrap;html=1;arcSize=3;" parent="1" vertex="1">
          <mxGeometry x="227.5" y="140" width="132.5" height="100" as="geometry" />
        </mxCell>
        <mxCell id="mHtDWtfK3_R8wOqp-HFp-1" value="" style="rounded=1;whiteSpace=wrap;html=1;arcSize=10;" parent="1" vertex="1">
          <mxGeometry x="160" y="80" width="200" height="40" as="geometry" />
        </mxCell>
        <mxCell id="mHtDWtfK3_R8wOqp-HFp-2" value="" style="rounded=1;whiteSpace=wrap;html=1;arcSize=10;" parent="1" vertex="1">
          <mxGeometry x="480" y="80" width="200" height="40" as="geometry" />
        </mxCell>
        <mxCell id="mHtDWtfK3_R8wOqp-HFp-3" value="应用A" style="text;html=1;align=center;verticalAlign=middle;whiteSpace=wrap;rounded=0;" parent="1" vertex="1">
          <mxGeometry x="160" y="85" width="60" height="30" as="geometry" />
        </mxCell>
        <mxCell id="mHtDWtfK3_R8wOqp-HFp-4" value="应用B" style="text;html=1;align=center;verticalAlign=middle;whiteSpace=wrap;rounded=0;" parent="1" vertex="1">
          <mxGeometry x="480" y="85" width="60" height="30" as="geometry" />
        </mxCell>
        <mxCell id="mHtDWtfK3_R8wOqp-HFp-9" value="buffer" style="rounded=0;whiteSpace=wrap;html=1;" parent="1" vertex="1">
          <mxGeometry x="262.5" y="90" width="60" height="20" as="geometry" />
        </mxCell>
        <mxCell id="mHtDWtfK3_R8wOqp-HFp-10" value="buffer" style="rounded=0;whiteSpace=wrap;html=1;" parent="1" vertex="1">
          <mxGeometry x="550" y="90" width="60" height="20" as="geometry" />
        </mxCell>
        <mxCell id="mHtDWtfK3_R8wOqp-HFp-11" value="" style="rounded=1;whiteSpace=wrap;html=1;arcSize=7;" parent="1" vertex="1">
          <mxGeometry x="240" y="155" width="25" height="60" as="geometry" />
        </mxCell>
        <mxCell id="mHtDWtfK3_R8wOqp-HFp-12" value="" style="rounded=1;whiteSpace=wrap;html=1;arcSize=7;" parent="1" vertex="1">
          <mxGeometry x="290" y="155" width="25" height="60" as="geometry" />
        </mxCell>
        <mxCell id="mHtDWtfK3_R8wOqp-HFp-13" value="" style="rounded=1;whiteSpace=wrap;html=1;arcSize=7;" parent="1" vertex="1">
          <mxGeometry x="324" y="155" width="25" height="60" as="geometry" />
        </mxCell>
        <mxCell id="mHtDWtfK3_R8wOqp-HFp-15" value="内核" style="rounded=1;whiteSpace=wrap;html=1;arcSize=3;" parent="1" vertex="1">
          <mxGeometry x="160" y="140" width="60" height="100" as="geometry" />
        </mxCell>
        <mxCell id="mHtDWtfK3_R8wOqp-HFp-16" value="内核" style="rounded=1;whiteSpace=wrap;html=1;arcSize=3;" parent="1" vertex="1">
          <mxGeometry x="620" y="140" width="60" height="100" as="geometry" />
        </mxCell>
        <mxCell id="mHtDWtfK3_R8wOqp-HFp-18" value="" style="rounded=1;whiteSpace=wrap;html=1;arcSize=3;" parent="1" vertex="1">
          <mxGeometry x="477.5" y="140" width="132.5" height="100" as="geometry" />
        </mxCell>
        <mxCell id="mHtDWtfK3_R8wOqp-HFp-19" value="" style="rounded=1;whiteSpace=wrap;html=1;arcSize=7;" parent="1" vertex="1">
          <mxGeometry x="490" y="155" width="25" height="60" as="geometry" />
        </mxCell>
        <mxCell id="mHtDWtfK3_R8wOqp-HFp-20" value="" style="rounded=1;whiteSpace=wrap;html=1;arcSize=7;" parent="1" vertex="1">
          <mxGeometry x="525" y="155" width="25" height="60" as="geometry" />
        </mxCell>
        <mxCell id="mHtDWtfK3_R8wOqp-HFp-21" value="" style="rounded=1;whiteSpace=wrap;html=1;arcSize=7;" parent="1" vertex="1">
          <mxGeometry x="570" y="155" width="25" height="60" as="geometry" />
        </mxCell>
        <mxCell id="mHtDWtfK3_R8wOqp-HFp-22" value="RDMA 网卡" style="text;html=1;align=center;verticalAlign=middle;whiteSpace=wrap;rounded=0;" parent="1" vertex="1">
          <mxGeometry x="255" y="215" width="75" height="30" as="geometry" />
        </mxCell>
        <mxCell id="mHtDWtfK3_R8wOqp-HFp-23" value="RDMA 网卡" style="text;html=1;align=center;verticalAlign=middle;whiteSpace=wrap;rounded=0;" parent="1" vertex="1">
          <mxGeometry x="506.25" y="215" width="75" height="30" as="geometry" />
        </mxCell>
        <mxCell id="mHtDWtfK3_R8wOqp-HFp-24" value="" style="rounded=1;whiteSpace=wrap;html=1;arcSize=7;fillColor=#f5f5f5;fontColor=#333333;strokeColor=#666666;" parent="1" vertex="1">
          <mxGeometry x="240" y="200" width="25" height="15" as="geometry" />
        </mxCell>
        <mxCell id="mHtDWtfK3_R8wOqp-HFp-25" value="CQ" style="text;html=1;align=center;verticalAlign=middle;whiteSpace=wrap;rounded=0;" parent="1" vertex="1">
          <mxGeometry x="222.5" y="155" width="60" height="30" as="geometry" />
        </mxCell>
        <mxCell id="mHtDWtfK3_R8wOqp-HFp-26" value="RQ" style="text;html=1;align=center;verticalAlign=middle;resizable=0;points=[];autosize=1;strokeColor=none;fillColor=none;" parent="1" vertex="1">
          <mxGeometry x="282.5" y="155" width="40" height="30" as="geometry" />
        </mxCell>
        <mxCell id="mHtDWtfK3_R8wOqp-HFp-27" value="SQ" style="text;html=1;align=center;verticalAlign=middle;resizable=0;points=[];autosize=1;strokeColor=none;fillColor=none;" parent="1" vertex="1">
          <mxGeometry x="316.5" y="155" width="40" height="30" as="geometry" />
        </mxCell>
        <mxCell id="mHtDWtfK3_R8wOqp-HFp-28" value="CQ" style="text;html=1;align=center;verticalAlign=middle;resizable=0;points=[];autosize=1;strokeColor=none;fillColor=none;" parent="1" vertex="1">
          <mxGeometry x="562.5" y="155" width="40" height="30" as="geometry" />
        </mxCell>
        <mxCell id="mHtDWtfK3_R8wOqp-HFp-29" value="" style="rounded=1;whiteSpace=wrap;html=1;arcSize=7;fillColor=#f5f5f5;fontColor=#333333;strokeColor=#666666;" parent="1" vertex="1">
          <mxGeometry x="570" y="200" width="25" height="15" as="geometry" />
        </mxCell>
        <mxCell id="mHtDWtfK3_R8wOqp-HFp-30" value="RQ" style="text;html=1;align=center;verticalAlign=middle;resizable=0;points=[];autosize=1;strokeColor=none;fillColor=none;" parent="1" vertex="1">
          <mxGeometry x="482.5" y="155" width="40" height="30" as="geometry" />
        </mxCell>
        <mxCell id="mHtDWtfK3_R8wOqp-HFp-31" value="SQ" style="text;html=1;align=center;verticalAlign=middle;resizable=0;points=[];autosize=1;strokeColor=none;fillColor=none;" parent="1" vertex="1">
          <mxGeometry x="517.5" y="155" width="40" height="30" as="geometry" />
        </mxCell>
        <mxCell id="mHtDWtfK3_R8wOqp-HFp-35" value="" style="shape=flexArrow;endArrow=classic;html=1;rounded=0;endWidth=4.194444444444445;endSize=1.9333333333333333;width=4.833333333333333;entryX=0.461;entryY=0.995;entryDx=0;entryDy=0;entryPerimeter=0;exitX=0.5;exitY=0;exitDx=0;exitDy=0;" parent="1" target="mHtDWtfK3_R8wOqp-HFp-1" edge="1">
          <mxGeometry width="50" height="50" relative="1" as="geometry">
            <mxPoint x="252.5" y="155" as="sourcePoint" />
            <mxPoint x="252" y="120" as="targetPoint" />
          </mxGeometry>
        </mxCell>
        <mxCell id="mHtDWtfK3_R8wOqp-HFp-36" value="" style="shape=flexArrow;endArrow=classic;html=1;rounded=0;endWidth=4.194444444444445;endSize=1.9333333333333333;width=4.833333333333333;" parent="1" edge="1">
          <mxGeometry width="50" height="50" relative="1" as="geometry">
            <mxPoint x="380" y="215" as="sourcePoint" />
            <mxPoint x="460" y="215" as="targetPoint" />
          </mxGeometry>
        </mxCell>
        <mxCell id="mHtDWtfK3_R8wOqp-HFp-37" value="" style="shape=flexArrow;endArrow=classic;html=1;rounded=0;endWidth=4.194444444444445;endSize=1.9333333333333333;width=4.833333333333333;" parent="1" edge="1">
          <mxGeometry width="50" height="50" relative="1" as="geometry">
            <mxPoint x="502.3" y="120" as="sourcePoint" />
            <mxPoint x="502.3" y="155" as="targetPoint" />
          </mxGeometry>
        </mxCell>
        <mxCell id="mHtDWtfK3_R8wOqp-HFp-38" value="" style="shape=flexArrow;endArrow=classic;html=1;rounded=0;endWidth=4.194444444444445;endSize=1.9333333333333333;width=4.833333333333333;" parent="1" edge="1">
          <mxGeometry width="50" height="50" relative="1" as="geometry">
            <mxPoint x="336.29999999999995" y="120" as="sourcePoint" />
            <mxPoint x="336.29999999999995" y="155" as="targetPoint" />
          </mxGeometry>
        </mxCell>
        <mxCell id="mHtDWtfK3_R8wOqp-HFp-39" value="" style="rounded=1;whiteSpace=wrap;html=1;arcSize=7;fillColor=#647687;fontColor=#ffffff;strokeColor=#314354;" parent="1" vertex="1">
          <mxGeometry x="324" y="195" width="25" height="20" as="geometry" />
        </mxCell>
        <mxCell id="mHtDWtfK3_R8wOqp-HFp-40" value="" style="rounded=1;whiteSpace=wrap;html=1;arcSize=7;fillColor=#647687;fontColor=#ffffff;strokeColor=#314354;" parent="1" vertex="1">
          <mxGeometry x="490" y="195" width="25" height="20" as="geometry" />
        </mxCell>
        <mxCell id="mHtDWtfK3_R8wOqp-HFp-41" value="&lt;font style=&quot;font-size: 10px;&quot;&gt;下发recv wr&lt;/font&gt;" style="text;html=1;align=center;verticalAlign=middle;resizable=0;points=[];autosize=1;strokeColor=none;fillColor=none;" parent="1" vertex="1">
          <mxGeometry x="437.5" y="115" width="80" height="30" as="geometry" />
        </mxCell>
        <mxCell id="mHtDWtfK3_R8wOqp-HFp-42" value="传输" style="text;html=1;align=center;verticalAlign=middle;resizable=0;points=[];autosize=1;strokeColor=none;fillColor=none;" parent="1" vertex="1">
          <mxGeometry x="388.5" y="185" width="50" height="30" as="geometry" />
        </mxCell>
        <mxCell id="mHtDWtfK3_R8wOqp-HFp-43" value="" style="shape=flexArrow;endArrow=classic;html=1;rounded=0;endWidth=4.194444444444445;endSize=1.9333333333333333;width=4.833333333333333;entryX=0.513;entryY=1.005;entryDx=0;entryDy=0;exitX=0.452;exitY=0.038;exitDx=0;exitDy=0;exitPerimeter=0;entryPerimeter=0;" parent="1" edge="1">
          <mxGeometry width="50" height="50" relative="1" as="geometry">
            <mxPoint x="581.58" y="155" as="sourcePoint" />
            <mxPoint x="581.6" y="120.19999999999999" as="targetPoint" />
          </mxGeometry>
        </mxCell>
        <mxCell id="mHtDWtfK3_R8wOqp-HFp-46" value="" style="ellipse;whiteSpace=wrap;html=1;aspect=fixed;" parent="1" vertex="1">
          <mxGeometry x="441" y="125.5" width="10" height="10" as="geometry" />
        </mxCell>
        <mxCell id="mHtDWtfK3_R8wOqp-HFp-48" value="&lt;font style=&quot;font-size: 10px;&quot;&gt;下发send wr&lt;/font&gt;" style="text;html=1;align=center;verticalAlign=middle;resizable=0;points=[];autosize=1;strokeColor=none;fillColor=none;" parent="1" vertex="1">
          <mxGeometry x="340" y="116" width="80" height="30" as="geometry" />
        </mxCell>
        <mxCell id="mHtDWtfK3_R8wOqp-HFp-49" value="&lt;font style=&quot;font-size: 10px;&quot;&gt;1&lt;/font&gt;" style="text;html=1;align=center;verticalAlign=middle;whiteSpace=wrap;rounded=0;" parent="1" vertex="1">
          <mxGeometry x="416" y="115" width="60" height="30" as="geometry" />
        </mxCell>
        <mxCell id="mHtDWtfK3_R8wOqp-HFp-50" value="" style="ellipse;whiteSpace=wrap;html=1;aspect=fixed;" parent="1" vertex="1">
          <mxGeometry x="341.5" y="126" width="10" height="10" as="geometry" />
        </mxCell>
        <mxCell id="mHtDWtfK3_R8wOqp-HFp-51" value="&lt;font style=&quot;font-size: 10px;&quot;&gt;2&lt;/font&gt;" style="text;html=1;align=center;verticalAlign=middle;whiteSpace=wrap;rounded=0;" parent="1" vertex="1">
          <mxGeometry x="316.5" y="114.5" width="60" height="30" as="geometry" />
        </mxCell>
        <mxCell id="mHtDWtfK3_R8wOqp-HFp-52" value="" style="ellipse;whiteSpace=wrap;html=1;aspect=fixed;" parent="1" vertex="1">
          <mxGeometry x="595" y="125.5" width="10" height="10" as="geometry" />
        </mxCell>
        <mxCell id="mHtDWtfK3_R8wOqp-HFp-53" value="" style="ellipse;whiteSpace=wrap;html=1;aspect=fixed;" parent="1" vertex="1">
          <mxGeometry x="258" y="126" width="10" height="10" as="geometry" />
        </mxCell>
        <mxCell id="mHtDWtfK3_R8wOqp-HFp-54" value="&lt;font style=&quot;font-size: 10px;&quot;&gt;Poll CQE&lt;/font&gt;" style="text;html=1;align=center;verticalAlign=middle;resizable=0;points=[];autosize=1;strokeColor=none;fillColor=none;" parent="1" vertex="1">
          <mxGeometry x="598" y="115" width="60" height="30" as="geometry" />
        </mxCell>
        <mxCell id="mHtDWtfK3_R8wOqp-HFp-55" value="&lt;font style=&quot;font-size: 10px;&quot;&gt;3&lt;/font&gt;" style="text;html=1;align=center;verticalAlign=middle;resizable=0;points=[];autosize=1;strokeColor=none;fillColor=none;" parent="1" vertex="1">
          <mxGeometry x="585" y="115" width="30" height="30" as="geometry" />
        </mxCell>
        <mxCell id="mHtDWtfK3_R8wOqp-HFp-58" value="&lt;font style=&quot;font-size: 10px;&quot;&gt;Poll CQE&lt;/font&gt;" style="text;html=1;align=center;verticalAlign=middle;resizable=0;points=[];autosize=1;strokeColor=none;fillColor=none;" parent="1" vertex="1">
          <mxGeometry x="261" y="114.5" width="60" height="30" as="geometry" />
        </mxCell>
        <mxCell id="mHtDWtfK3_R8wOqp-HFp-59" value="&lt;font style=&quot;font-size: 10px;&quot;&gt;4&lt;/font&gt;" style="text;html=1;align=center;verticalAlign=middle;resizable=0;points=[];autosize=1;strokeColor=none;fillColor=none;" parent="1" vertex="1">
          <mxGeometry x="248" y="115" width="30" height="30" as="geometry" />
        </mxCell>
      </root>
    </mxGraphModel>
  </diagram>
</mxfile>
